#!OML:ASF H:\GeneralSubjects\Female5\Project 1\Capture day 1\Session 1\Female5.ASF
:FULLY-SPECIFIED
:DEGREES
231
root 18.0508 15.9115 3.93619 474.253 97.2222 467.705
lowerback 16.9607 5.0916 18.038
upperback -12.7221 11.1686 -9.70686
thorax -19.1324 1.39625 -26.3177
lowerneck -12.8704 -5.27528 6.09438
upperneck 43.5718 -9.32234 4.69226
head 18.77 -0.956712 -0.202528
rclavicle -4.37326e-014 1.01778e-013
rhumerus -56.4011 -8.81796 -84.3467
rradius 37.9682
rwrist -5.77292
rhand -23.2049 -19.5737
rfingers 7.12502
rthumb 3.24523 -49.5287
lclavicle -4.37326e-014 1.01778e-013
lhumerus -51.3378 -35.4135 77.1771
lradius 33.0913
lwrist -1.05669
lhand -17.7423 29.2196
lfingers 7.12502
lthumb 8.51907 59.0278
rfemur -6.91909 7.18242 37.2166
rtibia 5.24436
rfoot -8.12266 -11.5627
rtoes -21.1091
lfemur -22.7694 3.29116 -20.5814
ltibia 62.9887
lfoot -26.637 7.90017
ltoes -42.319
232
root 18.3427 15.9187 3.93883 475.719 97.3558 469.283
lowerback 17.3026 5.23943 18.1924
upperback -12.7017 11.476 -9.72615
thorax -19.1156 1.5094 -26.554
lowerneck -12.7932 -5.32653 6.17009
upperneck 43.5818 -9.33765 4.55148
head 18.733 -0.967478 -0.282039
rclavicle 5.56597e-014 9.54166e-015
rhumerus -55.2629 -8.55936 -83.7543
rradius 38.7269
rwrist -5.14242
rhand -23.252 -19.8541
rfingers 7.12502
rthumb 3.19972 -49.8098
lclavicle 5.56597e-014 9.54166e-015
lhumerus -51.1889 -34.5066 75.8414
lradius 32.7728
lwrist -1.34106
lhand -17.9486 29.9989
lfingers 7.12502
lthumb 8.31998 59.8151
rfemur -5.33872 7.44827 37.4715
rtibia 4.723
rfoot -8.847 -11.8168
rtoes -21.0939
lfemur -25.7431 3.35156 -20.8135
ltibia 61.9493
lfoot -27.3377 6.83037
ltoes -44.7048
233
root 18.6327 15.9208 3.94266 477.607 97.3677 471.225
lowerback 17.0172 5.43805 17.9796
upperback -12.3347 11.5639 -9.60387
thorax -18.4197 1.79997 -26.0115
lowerneck -13.2417 -5.19712 6.00645
upperneck 43.4778 -9.04364 4.22402
head 18.7598 -0.94456 -0.380082
rclavicle 6.44062e-014 -5.08889e-014
rhumerus -53.3269 -7.83522 -83.0378
rradius 39.3495
rwrist -4.60331
rhand -23.4314 -19.9378
rfingers 7.12502
rthumb 3.02646 -49.896
lclavicle 6.44062e-014 -5.08889e-014
lhumerus -50.2602 -32.8216 74.2565
lradius 32.4806
lwrist -1.37438
lhand -18.3212 30.5727
lfingers 7.12502
lthumb 7.96034 60.4028
rfemur -3.78763 8.06486 37.6368
rtibia 4.19301
rfoot -9.8136 -12.339
rtoes -20.6778
lfemur -28.4068 3.29995 -21.1015
ltibia 60.0728
lfoot -28.5825 4.97401
ltoes -43.1596
234
root 18.9268 15.9111 3.93918 477.526 97.603 471.202
lowerback 17.2668 5.47829 18.4058
upperback -12.3746 11.7937 -9.65075
thorax -18.419 1.8267 -26.4443
lowerneck -13.2572 -5.16726 6.26306
upperneck 43.6131 -8.95048 3.95838
head 18.807 -0.885886 -0.529753
rclavicle 2.54444e-014 2.22639e-014
rhumerus -52.3014 -7.70894 -82.6454
rradius 40.0703
rwrist -4.24642
rhand -23.8223 -19.8419
rfingers 7.12502
rthumb 2.64893 -49.8052
lclavicle 2.54444e-014 2.22639e-014
lhumerus -50.2087 -31.9655 72.7271
lradius 32.448
lwrist -0.500249
lhand -18.9075 30.6828
lfingers 7.12502
lthumb 7.39441 60.5336
rfemur -2.11446 8.30838 38.1428
rtibia 3.55241
rfoot -10.5309 -12.6947
rtoes -21.6175
lfemur -30.6513 2.99683 -20.9612
ltibia 57.3366
lfoot -28.5052 2.70139
ltoes -41.8213
235
root 19.2284 15.8881 3.94818 476.136 98.2489 469.937
lowerback 17.5179 5.57548 18.9829
upperback -12.4263 12.1695 -9.43316
thorax -18.3589 1.94198 -26.5824
lowerneck -13.4168 -5.12438 5.56308
upperneck 43.8442 -8.79626 4.30487
head 19.0773 -0.858169 -0.207055
rclavicle -4.77083e-015 1.27222e-014
rhumerus -51.3132 -7.57363 -81.934
rradius 40.7991
rwrist -4.23761
rhand -24.1846 -19.7492
rfingers 7.12502
rthumb 2.29905 -49.7165
lclavicle -4.77083e-015 1.27222e-014
lhumerus -50.1711 -31.0579 71.6634
lradius 32.3786
lwrist 0.701877
lhand -19.9615 30.6993
lfingers 7.12502
lthumb 6.37695 60.5833
rfemur -0.333128 8.92346 39.2576
rtibia 2.96791
rfoot -11.3281 -13.3101
rtoes -22.0764
lfemur -32.5465 2.75414 -20.0537
ltibia 53.9012
lfoot -28.5883 0.748939
ltoes -40.7403
236
root 19.5358 15.8622 3.95412 475.408 98.5062 469.218
lowerback 17.5216 5.59755 19.494
upperback -12.4979 12.3484 -9.66602
thorax -18.2146 1.94898 -27.2777
lowerneck -13.0514 -5.11875 6.89344
upperneck 43.6942 -8.87236 3.68125
head 18.7391 -0.77083 -0.743059
rclavicle 1.00983e-013 1.27222e-014
rhumerus -50.3541 -8.02456 -81.9848
rradius 41.4074
rwrist -4.42903
rhand -24.7001 -19.3211
rfingers 7.12502
rthumb 1.80124 -49.2932
lclavicle 1.00983e-013 1.27222e-014
lhumerus -50.0519 -30.9761 70.0579
lradius 32.4181
lwrist 2.12992
lhand -20.9942 31.0916
lfingers 7.12502
lthumb 5.37991 61.0033
rfemur 1.38909 9.41768 39.9079
rtibia 2.26381
rfoot -12.0008 -13.8103
rtoes -22.6189
lfemur -34.0659 2.16998 -19.4936
ltibia 49.6046
lfoot -28.8492 0.0437809
ltoes -40.3924
237
root 19.8466 15.8314 3.97448 473.924 99.1648 467.72
lowerback 17.5737 5.70031 20.1721
upperback -12.6117 12.7204 -9.69874
thorax -18.0361 2.04961 -27.8058
lowerneck -12.9716 -5.16072 7.05152
upperneck 43.7131 -8.97399 3.74548
head 18.7277 -0.765633 -0.751473
rclavicle 3.69739e-014 -2.54444e-014
rhumerus -49.5153 -8.31533 -81.9562
rradius 41.9601
rwrist -5.20655
rhand -25.2021 -18.7886
rfingers 7.12502
rthumb 1.31641 -48.7642
lclavicle 3.69739e-014 -2.54444e-014
lhumerus -49.7748 -31.1436 68.9192
lradius 32.0928
lwrist 3.30765
lhand -21.8434 31.3131
lfingers 7.12502
lthumb 4.56003 61.244
rfemur 3.06702 10.2814 41.1146
rtibia 1.6166
rfoot -12.4816 -14.6494
rtoes -23.4509
lfemur -35.2808 1.592 -18.1285
ltibia 44.6467
lfoot -29.4 -0.0607775
ltoes -39.9547
